<svg width="332" height="382" viewBox="0 0 332 382" fill="none" xmlns="http://www.w3.org/2000/svg">
<path d="M263.991 301.765C264.278 302.052 264.68 302.068 264.995 302.026C265.331 301.981 265.722 301.852 266.144 301.67C266.994 301.303 268.087 300.671 269.344 299.845C271.866 298.189 275.126 295.704 278.576 292.847C285.471 287.137 293.185 279.893 297.342 274.725L297 274.45L297.342 274.725C302.01 268.92 305.204 261.654 306.534 254.918C307.859 248.212 307.36 241.897 304.461 238.099C303.452 236.777 301.852 235.611 299.939 234.637C298.019 233.66 295.751 232.861 293.369 232.292C288.617 231.155 283.335 230.912 279.388 232.053L279.388 232.053C277.427 232.622 276.165 234.419 275.235 237.918C274.302 241.432 273.656 246.842 273.067 254.944C272.223 266.566 269.572 281.489 267.192 288.085C265.986 291.426 265.008 294.587 264.402 296.991C264.099 298.192 263.887 299.216 263.787 299.984C263.737 300.366 263.713 300.703 263.724 300.975C263.73 301.11 263.745 301.245 263.778 301.369C263.808 301.485 263.866 301.639 263.991 301.765ZM263.991 301.765L264.335 301.421L263.992 301.765C263.992 301.765 263.992 301.765 263.991 301.765ZM142.64 381.296L123.916 380.347C93.7545 378.82 67.4334 366.706 42.6827 342.921L42.3362 343.282L42.6826 342.921C11.4409 312.903 -1.18719 276.894 0.679109 222.879C1.13027 209.822 1.46854 202.926 2.64456 198.278C3.8038 193.697 5.77379 191.311 9.62914 187.286C15.1707 181.503 24.0299 175.688 34.7042 170.588C45.3713 165.491 57.8196 161.122 70.5129 158.216C76.3839 156.873 81.8524 155.553 85.9343 154.509C87.9748 153.987 89.6719 153.533 90.9007 153.179C91.5145 153.002 92.0162 152.849 92.3873 152.723C92.5724 152.661 92.7306 152.603 92.8563 152.552C92.9665 152.507 93.0986 152.448 93.1955 152.375L93.1963 152.374C93.4517 152.182 93.5128 151.894 93.5125 151.674C93.5121 151.454 93.4536 151.216 93.3717 150.984C93.206 150.514 92.8948 149.93 92.483 149.28C91.6545 147.972 90.3609 146.307 88.8031 144.596L88.4429 144.924L88.8031 144.596C85.714 141.204 82.7865 137.058 80.6334 133.241C79.5571 131.333 78.6788 129.515 78.071 127.922C77.4737 126.357 77.1527 125.047 77.1378 124.094C77.1435 124.093 77.1496 124.093 77.1562 124.092C77.3544 124.069 77.7188 124.115 78.2786 124.277C79.374 124.595 80.9832 125.286 82.9846 126.285C86.9761 128.275 92.4273 131.434 98.2387 135.074C109.873 142.361 122.867 151.524 128.431 157.043L128.751 156.72L128.431 157.043C140.811 169.316 146.253 186.352 142.038 199.129C140.454 203.931 136.304 209.686 131.69 214.252C129.388 216.53 126.989 218.494 124.762 219.886C122.518 221.288 120.513 222.068 118.986 222.068C117.671 222.068 116.818 221.964 116.333 221.728C116.11 221.62 115.999 221.499 115.941 221.372C115.879 221.239 115.848 221.033 115.907 220.706C116.029 220.03 116.5 219.028 117.417 217.566C118.324 216.119 119.63 214.278 121.36 211.937C124.824 207.25 126.302 200.968 125.934 194.782C125.565 188.596 123.348 182.448 119.349 178.026C116.439 174.809 111.349 173.55 103.411 174.107C95.4514 174.666 84.4816 177.061 69.6343 181.335C49.6087 187.1 37.2957 194.288 31.793 201.914C29.0292 205.744 27.9754 209.697 28.5513 213.621C29.1256 217.535 31.3111 221.355 34.9055 224.952C42.0852 232.136 54.9887 238.534 72.4841 243.129C89.9942 247.727 112.157 250.535 137.911 250.498C176.499 250.443 203.379 245.59 225.136 234.695C234.671 229.923 241.081 225.056 244.333 219.962C245.965 217.406 246.805 214.787 246.837 212.099C246.869 209.413 246.094 206.692 244.55 203.93C242.076 199.503 236.207 194.775 228.461 190.49C220.692 186.192 210.957 182.299 200.651 179.579C200.159 179.449 199.682 179.323 199.22 179.2C196.024 178.353 193.557 177.699 191.634 177.374C189.444 177.004 187.818 177.032 186.572 177.81C185.368 178.562 184.638 179.938 184.009 181.92C183.46 183.652 182.96 185.946 182.321 188.878C182.225 189.319 182.126 189.774 182.023 190.243C181.444 192.884 179.926 196.028 177.727 199.374C175.533 202.712 172.68 206.223 169.463 209.592C163.023 216.337 155.166 222.472 148.285 225.529L148.488 225.986L148.284 225.529C145.026 226.976 141.933 228.152 139.577 228.88C138.397 229.245 137.416 229.493 136.698 229.609C136.337 229.668 136.062 229.69 135.871 229.683C135.839 229.681 135.811 229.679 135.787 229.677C135.813 229.54 135.883 229.335 136.013 229.059C136.281 228.488 136.755 227.713 137.41 226.783C138.716 224.93 140.694 222.528 143.026 220.029C148.672 213.982 153.474 206.982 156.866 200.166C160.255 193.359 162.258 186.694 162.258 181.324C162.258 173.149 159.582 165.811 152.49 157.123C145.416 148.457 133.927 138.42 116.271 124.827C102.778 114.437 93.2806 103.928 87.43 92.6998C81.5831 81.4789 79.364 69.5133 80.4689 56.1833C82.215 35.129 93.6425 17.8415 112.235 8.12029C116.261 6.01591 121.005 4.10747 125.418 2.72585C129.843 1.34049 133.887 0.5 136.527 0.5H144.239L132.094 6.55655C115.478 14.8416 105.052 27.3768 100.438 44.6454C99.0392 49.8782 98.3753 53.487 98.5759 57.1012C98.7764 60.7141 99.8386 64.2923 101.813 69.4682C107.44 84.2145 117.29 94.6777 145.752 116.377C151.613 120.846 157.711 126.071 162.812 130.888C167.924 135.715 172.001 140.101 173.848 142.895L174.265 142.619L173.848 142.895C176.999 147.658 179.208 150.431 183.172 152.52C187.091 154.586 192.707 155.97 202.607 158.1C229.609 163.905 254.308 176.121 266.478 189.603L266.822 189.292L266.479 189.603C270.309 193.844 273.357 196.598 276.828 198.471C280.301 200.344 284.159 201.314 289.575 202.056C314.878 205.528 331.5 223.246 331.5 246.586C331.5 264.286 320.366 283.875 301.915 301.534C283.478 319.18 257.8 334.831 228.87 344.66C219.103 347.979 212.595 349.84 204.265 350.902C195.921 351.965 185.739 352.23 168.62 352.335C135.343 352.541 127.828 351.732 112.197 346.329L112.034 346.801L112.197 346.329C90.5668 338.854 73.3115 328.306 59.6451 314.222C56.7447 311.234 54.5056 309.031 52.9059 307.66C52.1101 306.978 51.4482 306.481 50.928 306.198C50.6709 306.059 50.412 305.951 50.1664 305.917C49.9097 305.882 49.6042 305.924 49.3763 306.169C49.1717 306.388 49.1201 306.678 49.1147 306.921C49.1091 307.175 49.1524 307.471 49.2277 307.795C49.379 308.445 49.6831 309.306 50.1232 310.368C51.0057 312.499 52.4709 315.524 54.4804 319.466C68.1859 346.352 94.6557 366.632 130.035 377.444L142.64 381.296Z" fill="#F5F5DC" stroke="#F5F5DC"/>
</svg>
