<svg width="63" height="57" viewBox="0 0 63 57" fill="none" xmlns="http://www.w3.org/2000/svg">
<path fill-rule="evenodd" clip-rule="evenodd" d="M43.703 0.346748C42.677 0.534083 41.3839 0.832031 40.8292 1.00912C38.897 1.62578 34.9858 3.86539 33.099 5.43501C31.3442 6.89533 28.8372 9.5506 28.6617 10.1349C28.6207 10.2718 29.4687 11.0908 30.5463 11.955C32.9104 13.8501 35.3178 16.4513 37.0008 18.9287L38.246 20.7613L38.9573 19.1591C39.8393 17.1725 41.6148 14.4127 43.064 12.7758C45.5145 10.0075 50.7777 6.77841 55.8225 4.94763C57.9336 4.18147 57.9582 3.71931 55.9531 2.49703C54.053 1.33913 51.8776 0.605022 49.2724 0.242963C46.786 -0.102543 46.0947 -0.0896672 43.703 0.346748ZM57.0833 6.13601C56.2786 6.46496 54.8279 7.20747 53.8599 7.78603C48.1764 11.182 44.3357 15.3378 41.6877 20.9565C40.3558 23.7823 40.3425 24.7074 41.5821 28.2037C43.5298 33.6961 43.883 40.3043 42.4879 45.1506C41.4907 48.6159 41.456 48.829 41.8886 48.829C42.4916 48.829 45.416 47.5055 47.2346 46.4094C54.8017 41.8487 60.7734 32.8818 62.5889 23.3543C63.1391 20.4662 63.1367 15.4318 62.5837 12.9066C61.8388 9.50568 60.1083 5.94868 59.0651 5.67437C58.7801 5.59923 57.8882 5.80705 57.0833 6.13601ZM14.68 7.64415C14.0248 8.48703 13.7497 10.1018 13.6305 13.8086C13.426 20.167 14.2215 23.9998 16.769 28.9286C18.5293 32.3346 19.9494 34.0458 23.2355 36.7224C29.2396 41.6125 32.2562 45.5794 33.941 50.7995C34.6237 52.9146 34.7933 53.1831 35.576 53.3891C36.9065 53.7388 39.8704 49.3755 40.9964 45.4091C41.8105 42.541 41.9855 37.6309 41.3993 34.1044C39.3631 21.8575 30.6208 10.92 20.5242 7.98808C18.0042 7.25608 15.1137 7.08608 14.68 7.64415ZM9.58297 8.80127C4.97867 11.2713 1.5419 16.1202 0.326032 21.8624C-0.279288 24.7208 -0.0107201 30.5842 0.875185 33.8527C1.67462 36.8027 4.15259 42.0605 6.03177 44.7946C9.72457 50.1666 15.7174 54.6148 21.5541 56.3158C25.4723 57.458 31.1914 57.1209 32.4958 55.6713C33.2252 54.8608 32.9334 52.6874 31.78 50.3405C30.4732 47.6811 28.3066 45.1905 24.9263 42.4617C21.4647 39.6674 17.64 35.9152 15.8828 33.5899C14.1873 31.3459 12.388 27.668 11.7054 25.0508C10.8717 21.8532 10.9229 16.6678 11.8321 12.2498C12.2104 10.4114 12.52 8.66727 12.52 8.37431C12.52 7.57663 11.6226 7.70721 9.58297 8.80127Z" fill="#D4A373"/>
</svg>
